<?xml version="1.0" standalone="no"?><!DOCTYPE svg PUBLIC "-//W3C//DTD SVG 1.1//EN" "http://www.w3.org/Graphics/SVG/1.1/DTD/svg11.dtd"><svg t="1605581078084" class="icon" viewBox="0 0 1024 1024" version="1.1" xmlns="http://www.w3.org/2000/svg" p-id="6562" xmlns:xlink="http://www.w3.org/1999/xlink" width="200" height="200"><defs><style type="text/css"></style></defs><path d="M111.93856 947.2A29.98784 29.98784 0 0 1 81.92 917.2224v-213.13024a30.00832 30.00832 0 0 1 60.01664 0v213.13024A29.98784 29.98784 0 0 1 111.93856 947.2z m275.08224 0a29.98784 29.98784 0 0 1-30.00832-29.96736V590.336a30.00832 30.00832 0 0 1 60.01664 0v326.912A29.98784 29.98784 0 0 1 387.0208 947.2z m266.752 0a29.98784 29.98784 0 0 1-30.01344-29.96736V498.73408a30.01344 30.01344 0 0 1 60.02176 0v418.48832a29.98784 29.98784 0 0 1-30.01344 29.9776z m263.40864 0a29.98784 29.98784 0 0 1-30.00832-29.96736V372.18816a30.00832 30.00832 0 0 1 60.01664 0v545.03424a29.98784 29.98784 0 0 1-30.01344 29.9776z" fill="#2966C1" p-id="6563"></path><path d="M899.16416 81.88928h-158.77632a29.78304 29.78304 0 1 0 0 59.56096h97.664l-285.2864 240.128-104.8576-112.50176a49.05472 49.05472 0 0 0-67.80416-3.86048L102.60992 501.6064a29.6192 29.6192 0 0 0-3.22048 41.984 30.208 30.208 0 0 0 42.33728 3.18976l269.36832-229.4784 104.81152 112.43008a49.11104 49.11104 0 0 0 67.584 4.06016l296.99584-249.93792v94.37696a30.02368 30.02368 0 0 0 60.04224 0V122.9312a41.24672 41.24672 0 0 0-41.36448-41.04192z" fill="#FD9A16" p-id="6564"></path></svg>