<?xml version="1.0" standalone="no"?><!DOCTYPE svg PUBLIC "-//W3C//DTD SVG 1.1//EN" "http://www.w3.org/Graphics/SVG/1.1/DTD/svg11.dtd"><svg t="1610103456269" class="icon" viewBox="0 0 1024 1024" version="1.1" xmlns="http://www.w3.org/2000/svg" p-id="1077" xmlns:xlink="http://www.w3.org/1999/xlink" width="200" height="200"><defs><style type="text/css"></style></defs><path d="M680.533333 592.597333L600.32 512.426667l80.128-80.128a35.968 35.968 0 1 0-50.901333-50.901334l-80.128 80.128-74.496-74.496a35.968 35.968 0 1 0-50.901334 50.944l74.496 74.453334-74.496 74.496a35.968 35.968 0 1 0 50.901334 50.901333l74.496-74.453333 80.128 80.128a35.968 35.968 0 1 0 50.901333-50.901334z" fill="#595959" p-id="1078"></path><path d="M195.413333 213.333333H938.666667a42.666667 42.666667 0 0 1 42.666666 42.666667v512a42.666667 42.666667 0 0 1-42.666666 42.666667H195.413333a42.666667 42.666667 0 0 1-37.034666-21.504l-146.261334-256a42.666667 42.666667 0 0 1 0-42.325334l146.261334-256A42.666667 42.666667 0 0 1 195.413333 213.333333zM213.333333 298.666667l-128 213.333333 128.896 213.333333H896V298.666667H213.333333z" fill="#595959" p-id="1079"></path></svg>